PathFileType	4	(X/Y/Z)	Run_200 02
DataRate	CameraRate	NumFrames	NumMarkers	Units	OrigDataRate	OrigDataStartFrame	OrigNumFrames
100	100	4	45	mm	100	147	137
Frame#	Time	RASI			LPSI			RTH1			RTH2			RTH3			LTH1			LTH2			LTH3			RTB1			RTB2			RTB3			RLMAL			RMMAL			LTB1			LTB2			LTB3			RCAL			RTOE			RMT5			LCAL			LTOE			LMT5			LACR			RACR			CLAV			C7			LPSH			RUA1			RUA2			RUA3			RLEL			RMEL			LUA1			LUA2			LUA3			LLEL			LMEL			RFAsuperior			RFAradius			LFAsuperior			LFAradius			LFAulna			LASI			RFAulna			RPSI		
		X1	Y1	Z1	X2	Y2	Z2	X3	Y3	Z3	X4	Y4	Z4	X5	Y5	Z5	X6	Y6	Z6	X7	Y7	Z7	X8	Y8	Z8	X9	Y9	Z9	X10	Y10	Z10	X11	Y11	Z11	X12	Y12	Z12	X13	Y13	Z13	X14	Y14	Z14	X15	Y15	Z15	X16	Y16	Z16	X17	Y17	Z17	X18	Y18	Z18	X19	Y19	Z19	X20	Y20	Z20	X21	Y21	Z21	X22	Y22	Z22	X23	Y23	Z23	X24	Y24	Z24	X25	Y25	Z25	X26	Y26	Z26	X27	Y27	Z27	X28	Y28	Z28	X29	Y29	Z29	X30	Y30	Z30	X31	Y31	Z31	X32	Y32	Z32	X33	Y33	Z33	X34	Y34	Z34	X35	Y35	Z35	X36	Y36	Z36	X37	Y37	Z37	X38	Y38	Z38	X39	Y39	Z39	X40	Y40	Z40	X41	Y41	Z41	X42	Y42	Z42	X43	Y43	Z43	X44	Y44	Z44	X45	Y45	Z45	

147	  1.470000	1035.957780	1031.058641	-386.157341	871.125982	1055.172762	-553.564918	1024.130933	767.423026	-355.502399	1119.602680	726.560529	-385.979308	1087.167488	610.963033	-390.575275	972.188464	806.973666	-681.684008	1060.312739	708.043542	-674.241637	1021.761237	602.538763	-664.840762	1064.496053	400.089960	-425.685006	997.159276	398.305717	-379.749484	916.166458	296.733398	-406.427031	805.040357	255.169306	-379.393987	832.872481	242.263390	-459.128857	1038.459215	368.319287	-630.663274	921.102585	309.094728	-665.472703	935.178618	204.333866	-618.361013	743.813608	269.246455	-444.056763	888.199329	105.505941	-399.983728	828.706342	147.226669	-333.304415	769.001536	 92.125920	-580.809247	997.628237	 68.148242	-604.519478	933.789846	 56.648572	-672.301007	1011.934370	1513.031419	-701.858516	1015.130496	1509.578325	-383.901295	1083.434502	1444.640753	-515.117672	969.216803	1540.741231	-543.728853	933.622668	1469.616283	-713.222100	956.286514	1379.192154	-276.324204	871.425956	1335.452414	-285.491536	874.440068	1290.464006	-229.497678	876.388363	1227.699631	-188.846616	843.248954	1204.140997	-268.686168	950.323739	1372.386027	-772.785789	905.016043	1278.494494	-758.978779	932.002461	1240.616950	-818.227805	954.228050	1168.402874	-842.273484	926.725433	1147.005524	-757.737563	893.713015	1143.974359	-183.304178	1033.287776	1025.446348	-243.327613	1035.638350	1136.741580	-798.255676	1167.889866	1233.732823	-732.239762	1183.939739	1166.489943	-735.803550	1041.481846	1026.492382	-619.134093	1010.126837	989.341162	-191.691415	868.202978	1050.855003	-465.617298	
148	  1.480000	1034.655730	1034.704776	-385.190312	872.403733	1057.185188	-554.434260	1026.462844	772.341101	-353.798810	1122.895266	733.777005	-384.379864	1093.204799	617.343831	-388.426034	968.912429	808.433080	-680.600008	1053.679512	707.228924	-672.135588	1011.794858	602.685606	-663.740455	1078.268390	403.804313	-423.261831	1010.749896	398.834819	-377.531508	935.245539	292.772347	-404.530842	826.435491	245.227170	-377.463084	855.300641	233.865292	-456.878416	1022.652867	367.560432	-629.419309	904.603270	310.081072	-664.521405	917.353171	205.257852	-618.164523	764.620383	255.688526	-442.160435	918.600644	101.003171	-397.560517	856.381622	138.942150	-331.130454	749.499890	 93.072785	-581.053705	977.567209	 68.117369	-604.464983	913.817819	 56.969939	-672.239344	1013.072932	1517.259136	-700.693192	1012.956038	1511.863461	-383.650871	1082.524973	1447.344057	-514.327501	968.515674	1543.378042	-543.383738	935.376102	1473.188373	-714.059113	951.056069	1383.875855	-275.294244	865.779562	1340.993993	-284.847928	867.887939	1296.661754	-228.234150	868.261569	1234.278662	-186.974233	835.737258	1210.330995	-266.921760	956.830607	1375.796576	-773.399380	911.816146	1281.565778	-759.092384	940.933187	1242.483344	-815.990598	965.102436	1170.309319	-838.007937	936.295710	1149.912100	-753.108593	884.115426	1150.576857	-180.055771	1022.455625	1028.270955	-237.106691	1046.861679	1143.990199	-791.207007	1171.647485	1249.327671	-723.409043	1191.849793	1183.181037	-725.792509	1044.066454	1027.835475	-619.104487	997.956467	993.941673	-184.727863	869.538210	1053.330896	-467.217830	
149	  1.490000	1033.612441	1038.922799	-384.182613	873.475210	1060.022963	-555.012725	1028.637705	777.821007	-351.822937	1125.687212	741.171453	-382.621454	1098.321131	624.142764	-386.005757	965.426568	810.522653	-679.408458	1046.875750	707.065430	-669.817939	1001.534967	603.716961	-662.658025	1091.607665	407.700071	-421.226364	1023.963991	399.072707	-374.899706	954.798125	288.497896	-402.239475	848.771791	234.551113	-375.327116	878.522902	224.933977	-454.427260	1006.387523	367.741190	-628.327476	887.764114	311.822372	-663.780029	899.484722	206.838946	-618.032371	786.651000	240.982325	-440.247962	950.272554	 96.791043	-394.779870	885.264898	130.555118	-328.774690	730.188601	 94.776551	-581.564221	957.520769	 68.150710	-604.359701	893.925689	 57.219021	-671.934513	1014.046930	1522.192734	-699.177720	1010.675881	1515.122359	-383.236805	1081.753780	1450.865011	-513.185831	967.930760	1546.707102	-542.741724	936.792774	1477.552399	-714.237689	945.971363	1389.554644	-274.293027	860.423565	1347.784666	-283.943783	861.512700	1303.751572	-227.107505	860.090665	1241.731628	-185.631230	828.089186	1217.708615	-265.731566	962.029506	1379.686283	-772.794269	917.949440	1285.131661	-758.542446	949.521161	1245.491689	-813.136107	975.372626	1173.352196	-833.250904	945.176213	1153.929866	-748.276190	874.772740	1158.241365	-177.771136	1012.871257	1032.840759	-232.817324	1057.010593	1152.593773	-783.439869	1173.625610	1266.081138	-714.300103	1197.901869	1201.306890	-715.139152	1046.335544	1029.935825	-618.699148	986.957000	1000.370262	-179.676213	870.760144	1056.657855	-468.292365	
150	  1.500000	1032.816293	1043.613663	-383.189265	874.349061	1063.665515	-555.279896	1030.686838	783.730182	-349.597627	1128.025892	748.621815	-380.684544	1102.412536	631.194601	-383.233366	961.799084	813.278870	-678.151846	1039.909009	707.581791	-667.406871	990.911800	605.584976	-661.449737	1104.323216	411.615245	-419.048823	1036.810926	398.913839	-371.905376	974.824529	283.989635	-399.608564	872.144791	223.314180	-373.076541	902.745686	215.698061	-451.968353	989.857717	368.917806	-627.480583	870.792295	314.262124	-663.164821	881.635669	209.000556	-617.764950	809.994355	225.380289	-438.357064	983.073331	 93.013785	-391.781513	915.336590	122.282698	-326.287879	711.132997	 97.943059	-582.212780	937.584121	 68.335616	-604.275679	874.147489	 57.503274	-671.612181	1014.791444	1527.651364	-697.476950	1008.385785	1519.298348	-382.597711	1081.106859	1455.145190	-511.613658	967.439059	1550.595013	-541.827058	937.985455	1482.316555	-713.797733	941.274083	1395.953039	-273.400765	855.527345	1355.421735	-283.333645	855.194548	1311.489698	-226.516681	851.926898	1249.811973	-185.059186	820.573307	1225.847605	-265.300792	965.927730	1383.927254	-771.076794	923.455695	1288.844011	-757.213306	957.740173	1249.249637	-809.786340	985.138604	1177.185111	-828.270952	953.132224	1158.633829	-743.392584	865.795422	1166.698042	-176.482662	1004.426565	1039.186453	-229.482587	1066.060703	1162.037184	-775.192217	1173.915988	1283.224793	-705.040765	1201.980315	1220.040120	-703.937679	1048.029496	1032.567532	-617.727582	977.129328	1008.078699	-176.046047	871.337057	1060.749643	-468.467597	
